<svg id="Layer_1" data-name="Layer 1" 
xmlns="http://www.w3.org/2000/svg" 
viewBox="0 0 1377.3 717"
width="550px" height="550px"
enable-backgroung="new 0 0 100 100"
xml:space="preserve">
>
  <defs>
    <style>
      .cls-1 {
        fill: none;
        stroke: #0f6e5b;
        stroke-linecap: round;
        stroke-linejoin: round;
        stroke-width: 21px;
        stroke-dasharray: 20 50;
      }

      .cls-2 {
        fill: #b3bce8;
        stroke: #838bc5;
        stroke-miterlimit: 10;
        stroke-width: 41px;
      }

      .cls-3 {
        fill: #0f6e5b;
      }

      .cls-4 {
        fill: #c1272d;
      }
    </style>
  </defs>
  <title>medi3</title>
  <circle class="cls-1" cx="358.5" cy="358.5" r="348">
  <animateTransform attributeName="transform"
     attributeType="XML"
     type = "rotate"
     from = "0 358.5 358.5"
     to = "360 358.5 358.5"
     dur = "10s"
     repeatCount = "indefinite" />
     </circle>
  <circle class="cls-2" cx="358.5" cy="358.5" r="274"/>
  <g>
    <path class="cls-3" d="M971,758.8l-14.8-8A57.1,57.1,0,0,1,933.3,728c-5.4-9.9-8.1-21.2-8.1-34.2V646q0-19.5,8.1-34.2a56.7,56.7,0,0,1,22.9-22.9c9.9-5.4,21.3-8.1,34.3-8.1a68.7,68.7,0,0,1,29.7,6.5,61.3,61.3,0,0,1,22.6,18.1,65,65,0,0,1,12.3,27.2h-26.9a39.5,39.5,0,0,0-8.2-14.5,40.7,40.7,0,0,0-13.5-9.9,39.1,39.1,0,0,0-16-3.5,38.2,38.2,0,0,0-20.2,5.2,35.2,35.2,0,0,0-13.4,14.4c-3.2,6.2-4.7,13.4-4.7,21.7v47.8c0,8.2,1.5,15.4,4.7,21.6a35.2,35.2,0,0,0,13.4,14.4,39.1,39.1,0,0,0,20.2,5.1,39.8,39.8,0,0,0,16-3.2,38.8,38.8,0,0,0,13.5-9.6,38.2,38.2,0,0,0,8.2-15.1h26.9a64.6,64.6,0,0,1-12.4,27.2,61.1,61.1,0,0,1-22.7,18.2,67.7,67.7,0,0,1-29.5,6.4Z" transform="translate(-175.2 -193.9)"/>
    <path class="cls-3" d="M1139.8,582.6h22.4L1231.4,757H1203l-52-140.7L1099,757h-28.4Zm-37.3,112.9h98.7v23.2h-98.7Z" transform="translate(-175.2 -193.9)"/>
    <path class="cls-3" d="M1259.8,582.5h26.3V757h-26.3Zm11.4,77.5h64a25.3,25.3,0,0,0,13.3-3.4,22.3,22.3,0,0,0,9-9.5,33.1,33.1,0,0,0,0-28.4,23.6,23.6,0,0,0-8.9-9.6,26.4,26.4,0,0,0-13.4-3.3h-64V582.5h63c10.9,0,20.4,2.1,28.6,6.3a45.2,45.2,0,0,1,19.1,17.6,51.5,51.5,0,0,1,6.8,26.5q0,15-6.9,26.4a44.8,44.8,0,0,1-19.1,17.7c-8.3,4.2-17.7,6.3-28.5,6.3h-63Zm51.1,17.9,26.2-5.6,48,84.7h-31.2Z" transform="translate(-175.2 -193.9)"/>
    <path class="cls-3" d="M1432,582.6h26.3V757H1432Zm12.8,0h107.7v23.3H1444.8Zm0,76.2h93.5v23.3h-93.5Zm0,74.9h107.7V757H1444.8Z" transform="translate(-175.2 -193.9)"/>
  </g>
  <polygon class="cls-4" points="191.6 515.7 191.6 162.2 244 162.2 353.7 281.7 468.8 162.2 522.7 162.2 522.7 346.3 637.5 346.3 637.5 389.9 520.7 389.9 520.7 586.1 480.6 586.1 480.6 390 374.2 390.5 373.9 346.1 480.6 346.1 480.6 216.2 387.3 308.5 323.7 308.5 242.3 223.1 242.3 515 191.6 515.7"/>
  <g>
    <path d="M703.3,494.8h8V530h-8Zm3.8,0h32.7v4.7H707.1Zm0,15.1h28.4v4.7H707.1Zm0,15.4h32.7V530H707.1Z" transform="translate(-175.2 -193.9)"/>
    <path d="M751.2,494.8h8V530h-8Zm5.4,0h12.6a39.6,39.6,0,0,1,11.7,1.5,14.9,14.9,0,0,1,7.4,4.3,9.8,9.8,0,0,1,2.6,6.8v10a10,10,0,0,1-2.6,6.8,15.6,15.6,0,0,1-7.4,4.3,39.6,39.6,0,0,1-11.7,1.5H756.6v-4.7h12.9c4.2,0,7.4-.7,9.7-2.1a6.2,6.2,0,0,0,3.5-5.7V507.2a6.2,6.2,0,0,0-3.5-5.7c-2.3-1.4-5.5-2-9.7-2H756.6Z" transform="translate(-175.2 -193.9)"/>
    <path d="M811.8,530h-8V494.8h8Z" transform="translate(-175.2 -193.9)"/>
  </g>
</svg>
